# xmcd CD database file
#
# Track frame offsets:
#	183
#	16943
#	29348
#	45408
#	62703
#	83915
#	100200
#	123388
#	145975
#	161698
#
# Disc length: 2556 seconds
#
# Revision: 1
# Processed by: cddbd v1.5.2PL0 Copyright (c) Steve Scherf et al.
# Submitted via: CDex 1.51
#
DISCID=7d09fa0a
DTITLE=Eurythmics - Sweet Dreams (Are Made Of This)
DYEAR=1983
DGENRE=New Age
TTITLE0=Love Is A Stranger
TTITLE1=I've Got An Angel
TTITLE2=Wrap It Up
TTITLE3=I Could Give You (A Miirow)
TTITLE4=The Walk
TTITLE5=Sweet Dreams (Are Made Of This)
TTITLE6=Jennifer
TTITLE7=This Is The House
TTITLE8=Somebody Told Me
TTITLE9=Teh City Never Sleeps
EXTD=YEAR: 1983
EXTT0=
EXTT1=
EXTT2=
EXTT3=
EXTT4=
EXTT5=
EXTT6=
EXTT7=
EXTT8=
EXTT9=
PLAYORDER=
